<svg width="22" height="19" viewBox="0 0 22 19" fill="none" xmlns="http://www.w3.org/2000/svg">
<path d="M8.77873 18.6777C9.16926 19.0682 9.80242 19.0682 10.1929 18.6777C10.5835 18.2871 10.5835 17.654 10.1929 17.2635L3.41421 10.4847L20.5815 10.4847C21.1338 10.4847 21.5815 10.037 21.5815 9.48473C21.5815 8.93244 21.1338 8.48473 20.5815 8.48473L3.41533 8.48472L10.1929 1.70711C10.5835 1.31658 10.5835 0.683421 10.1929 0.292895C9.80242 -0.0976287 9.16926 -0.0976287 8.77873 0.292895L0.320144 8.75149C0.123303 8.93411 0.000122925 9.19503 0.0001229 9.48472C0.000122883 9.67363 0.0525006 9.85029 0.143525 10.001C0.184636 10.0692 0.234612 10.1335 0.293454 10.1924L8.77873 18.6777Z" fill="#FD5B4F"/>
</svg>
