<svg width="22" height="19" viewBox="0 0 22 19" fill="none" xmlns="http://www.w3.org/2000/svg">
<path d="M12.8028 0.292893C12.4123 -0.0976311 11.7791 -0.0976311 11.3886 0.292893C10.9981 0.683417 10.9981 1.31658 11.3886 1.70711L18.1673 8.48584H1C0.447715 8.48584 0 8.93355 0 9.48584C0 10.0381 0.447715 10.4858 1 10.4858H18.1662L11.3886 17.2635C10.9981 17.654 10.9981 18.2871 11.3886 18.6777C11.7791 19.0682 12.4123 19.0682 12.8028 18.6777L21.2614 10.2191C21.4582 10.0364 21.5814 9.77553 21.5814 9.48584C21.5814 9.29694 21.529 9.12027 21.438 8.96957C21.3969 8.90137 21.3469 8.83702 21.2881 8.77817L12.8028 0.292893Z" fill="#FD5B4F"/>
</svg>
